<svg width="22" height="22" viewBox="0 0 22 22" fill="none" xmlns="http://www.w3.org/2000/svg">
<path d="M15.2344 0H15.3909C15.5164 1.55149 14.9243 2.71075 14.2045 3.55026C13.4984 4.38396 12.5313 5.19255 10.9673 5.06986C10.863 3.5406 11.4561 2.46731 12.1749 1.62974C12.8414 0.849163 14.0635 0.154569 15.2344 0ZM19.969 16.1486V16.1921C19.5294 17.5233 18.9025 18.6642 18.1374 19.723C17.4389 20.6842 16.583 21.9778 15.0547 21.9778C13.7341 21.9778 12.8569 21.1286 11.5035 21.1054C10.0718 21.0822 9.28442 21.8155 7.97542 22H7.5291C6.56787 21.8609 5.79213 21.0996 5.22698 20.4137C3.56054 18.3869 2.27279 15.7689 2.0332 12.4187V11.4342C2.13464 9.03649 3.2997 7.08699 4.84829 6.14219C5.66557 5.63984 6.7891 5.21187 8.04014 5.40315C8.5763 5.48623 9.12406 5.66978 9.60419 5.8514C10.0592 6.02626 10.6282 6.33636 11.1673 6.31994C11.5324 6.30931 11.8957 6.119 12.2637 5.98472C13.3419 5.5954 14.3987 5.14908 15.7918 5.35871C17.466 5.61182 18.6542 6.35568 19.3884 7.50336C17.9722 8.40469 16.8525 9.76297 17.0438 12.0825C17.2138 14.1894 18.4388 15.4221 19.969 16.1486Z" fill="#25221F"/>
</svg>
