<svg width="20" height="20" viewBox="0 0 20 20" fill="none" xmlns="http://www.w3.org/2000/svg">
<path d="M1.66602 5L7.42687 8.26414C9.55068 9.46751 10.448 9.46751 12.5718 8.26414L18.3327 5" stroke="#919EAB" stroke-width="1.25" stroke-linejoin="round"/>
<path d="M1.67915 11.23C1.73363 13.7846 1.76087 15.0619 2.70348 16.0081C3.64609 16.9543 4.95796 16.9873 7.58171 17.0532C9.19878 17.0938 10.7999 17.0938 12.417 17.0532C15.0407 16.9873 16.3526 16.9543 17.2952 16.0081C18.2378 15.0619 18.2651 13.7846 18.3195 11.23C18.3371 10.4086 18.3371 9.59206 18.3195 8.77065C18.2651 6.21604 18.2378 4.93874 17.2952 3.99254C16.3526 3.04635 15.0407 3.01339 12.417 2.94747C10.7999 2.90684 9.19877 2.90683 7.5817 2.94746C4.95796 3.01338 3.64608 3.04634 2.70348 3.99253C1.76087 4.93872 1.73363 6.21603 1.67915 8.77064C1.66164 9.59205 1.66164 10.4086 1.67915 11.23Z" stroke="#919EAB" stroke-width="1.25" stroke-linejoin="round"/>
</svg>
