<svg width="22" height="22" viewBox="0 0 22 22" fill="none" xmlns="http://www.w3.org/2000/svg">
<g clip-path="url(#clip0_21851_705)">
<path d="M4.87566 13.2941L4.10988 16.1529L1.31093 16.2121C0.474461 14.6606 0 12.8856 0 10.9992C0 9.17516 0.443609 7.45504 1.22994 5.94043H1.23054L3.72238 6.39727L4.81396 8.87416C4.5855 9.54022 4.46097 10.2552 4.46097 10.9992C4.46106 11.8067 4.60732 12.5803 4.87566 13.2941Z" fill="#FBBB00"/>
<path d="M21.8082 8.94434C21.9345 9.60975 22.0004 10.2969 22.0004 10.9993C22.0004 11.7868 21.9176 12.555 21.7598 13.296C21.2243 15.8175 19.8252 18.0193 17.8869 19.5775L17.8863 19.5769L14.7477 19.4167L14.3035 16.6437C15.5896 15.8895 16.5947 14.7091 17.1242 13.296H11.2422V8.94434H21.8082Z" fill="#518EF8"/>
<path d="M17.8855 19.5776L17.8861 19.5782C16.001 21.0934 13.6064 22 10.9996 22C6.81055 22 3.16847 19.6586 1.31055 16.2129L4.87528 13.2949C5.80422 15.7741 8.19582 17.539 10.9996 17.539C12.2048 17.539 13.3338 17.2132 14.3026 16.6445L17.8855 19.5776Z" fill="#28B446"/>
<path d="M18.0218 2.53241L14.4583 5.44981C13.4556 4.82307 12.2703 4.46102 11.0005 4.46102C8.13327 4.46102 5.69694 6.30682 4.81454 8.87494L1.23107 5.9412H1.23047C3.0612 2.41154 6.7492 0 11.0005 0C13.6695 0 16.1167 0.950727 18.0218 2.53241Z" fill="#F14336"/>
</g>
<defs>
<clipPath id="clip0_21851_705">
<rect width="22" height="22" fill="white"/>
</clipPath>
</defs>
</svg>
