<svg width="18" height="18" viewBox="0 0 18 18" fill="none" xmlns="http://www.w3.org/2000/svg">
<path d="M11.026 4.72578C10.8886 4.86598 10.8116 5.05446 10.8116 5.25078C10.8116 5.44709 10.8886 5.63558 11.026 5.77578L12.226 6.97578C12.3662 7.1132 12.5547 7.19017 12.751 7.19017C12.9473 7.19017 13.1358 7.1132 13.276 6.97578L16.1035 4.14828C16.4806 4.98167 16.5948 5.9102 16.4308 6.81014C16.2669 7.71007 15.8325 8.53866 15.1857 9.18549C14.5389 9.83231 13.7103 10.2667 12.8103 10.4306C11.9104 10.5946 10.9819 10.4804 10.1485 10.1033L4.96599 15.2858C4.66762 15.5841 4.26295 15.7518 3.84099 15.7518C3.41903 15.7518 3.01436 15.5841 2.71599 15.2858C2.41762 14.9874 2.25 14.5827 2.25 14.1608C2.25 13.7388 2.41762 13.3341 2.71599 13.0358L7.89849 7.85328C7.52136 7.01989 7.40718 6.09135 7.57115 5.19142C7.73512 4.29149 8.16946 3.46289 8.81628 2.81607C9.46311 2.16924 10.2917 1.7349 11.1916 1.57094C12.0916 1.40697 13.0201 1.52115 13.8535 1.89828L11.0335 4.71828L11.026 4.72578Z" stroke="#1D3B71" stroke-width="1.5" stroke-linecap="round" stroke-linejoin="round"/>
</svg>
